# xmcd CD database file
#
# Track frame offsets:
#	150
#	30857
#	53140
#	83175
#	110227
#	141487
#	170537
#	202305
#	234937
#	267787
#	290725
#
# Disc length: 4364 seconds
#
# Revision: 1
# Processed by: cddbd v1.5.2PL0 Copyright (c) Steve Scherf et al.
# Submitted via: CDex 1.51
#
DISCID=a3110a0b
DTITLE=Bill Evans - Vol. 207 -  Waltz For Debby
DYEAR=1965
DGENRE=Jazz
TTITLE0=Waltz For Debby
TTITLE1=My Foolish Heart
TTITLE2=Milestones
TTITLE3=Porgy (I Love You, Porgy)
TTITLE4=Gloria's Step
TTITLE5=My man's gone now
TTITLE6=Alice in Wonderland
TTITLE7=Detour Ahead
TTITLE8=My Romance
TTITLE9=Some Other Time
TTITLE10=All Of You
EXTD=YEAR: 1965
EXTT0=
EXTT1=
EXTT2=
EXTT3=
EXTT4=
EXTT5=
EXTT6=
EXTT7=
EXTT8=
EXTT9=
EXTT10=
PLAYORDER=
